<svg width="14" height="14" viewBox="0 0 14 14" fill="none" xmlns="http://www.w3.org/2000/svg">
<path d="M13.6962 6.07853C13.9717 5.80997 14.069 5.41582 13.9501 5.04942C13.831 4.68302 13.5207 4.42147 13.1394 4.36596L9.74958 3.87341C9.60521 3.85238 9.48046 3.76183 9.41598 3.63092L7.90048 0.559551C7.73032 0.214457 7.38494 0 7.00004 0C6.61542 0 6.27004 0.214457 6.09988 0.559551L4.5841 3.6312C4.51962 3.76211 4.39459 3.85266 4.25022 3.87369L0.860391 4.36624C0.479414 4.42147 0.168802 4.6833 0.0496586 5.0497C-0.069204 5.4161 0.0280727 5.81025 0.303643 6.07881L2.75631 8.46952C2.86087 8.57157 2.90881 8.71846 2.88414 8.86199L2.30553 12.2378C2.25422 12.535 2.33216 12.824 2.52447 13.0519C2.82331 13.4071 3.34501 13.5153 3.76215 13.2961L6.79371 11.7021C6.92042 11.6356 7.07993 11.6362 7.20637 11.7021L10.2382 13.2961C10.3857 13.3737 10.5429 13.413 10.7052 13.413C11.0016 13.413 11.2825 13.2812 11.4756 13.0519C11.6682 12.824 11.7459 12.5344 11.6946 12.2378L11.1157 8.86199C11.091 8.71818 11.1389 8.57157 11.2435 8.46952L13.6962 6.07853Z" fill="#E9E9E9"/>
</svg>
